<svg data-v-423bf9ae="" xmlns="http://www.w3.org/2000/svg" viewBox="0 0 502 90" class="iconLeftSlogan"><!----><!----><!----><g data-v-423bf9ae="" id="4eeba19b-e40b-4f6c-8e18-c7a7bb0b7823" fill="black" transform="matrix(6.1224488604322,0,0,6.1224488604322,109.99999455003498,-4.285714427340487)"><path d="M3.74 0.70L3.74 0.70L6.13 0.70L6.13 10.50L4.59 10.50L4.59 5.24L3.74 9.77L2.39 9.77L1.54 5.24L1.54 10.50L0 10.50L0 0.70L2.39 0.70L3.07 4.61L3.74 0.70ZM8.58 0.70L8.58 0.70L11.05 0.70L11.05 1.68L11.05 2.24L8.58 2.24L8.58 4.07L10.54 4.07L10.54 4.35L10.54 5.33L10.54 5.61L8.58 5.61L8.58 8.96L11.05 8.96L11.05 9.52L11.05 10.50L8.58 10.50L7.04 10.50L7.04 9.48L7.04 4.07L8.58 4.07L7.04 1.04L7.04 0.70L8.58 0.70ZM16.35 0.70L16.35 0.70L16.35 2.24L14.97 2.24L14.97 8.67L14.97 10.50L13.43 10.50L13.43 8.67L13.43 2.24L11.94 2.24L11.94 0.70L13.43 0.70L14.97 0.70L16.35 0.70ZM20.76 0.70L20.76 0.70L22.34 10.50L20.78 10.50L19.81 3.70L19.42 6.90L19.42 6.92L19.81 6.92L19.81 8.46L19.17 8.46L18.84 10.50L17.29 10.50L17.61 8.46L17.26 8.46L17.26 6.92L17.86 6.92L18.86 0.70L20.76 0.70ZM32.03 0.70L32.03 0.70L32.34 0.70L31.15 10.25L31.12 10.50L30.87 10.50L29.53 10.50L29.29 10.50L29.26 10.26L28.78 7.57L28.32 10.26L28.28 10.50L28.04 10.50L26.70 10.50L26.45 10.50L26.42 10.25L25.21 0.70L25.54 0.70L26.53 0.70L26.78 0.70L27.44 6.40L28.14 2.79L28.18 2.56L28.41 2.56L29.27 2.56L29.51 2.56L29.55 2.79L30.14 6.27L30.79 0.70L31.04 0.70L32.03 0.70ZM34.66 0.70L34.66 0.70L37.13 0.70L37.13 1.68L37.13 2.24L34.66 2.24L34.66 4.07L36.62 4.07L36.62 4.35L36.62 5.33L36.62 5.61L34.66 5.61L34.66 8.96L37.13 8.96L37.13 9.52L37.13 10.50L34.66 10.50L33.12 10.50L33.12 9.48L33.12 4.07L34.66 4.07L33.12 1.04L33.12 0.70L34.66 0.70ZM41.54 0.70L41.54 0.70L43.12 10.50L41.55 10.50L40.59 3.70L40.19 6.90L40.19 6.92L40.59 6.92L40.59 8.46L39.94 8.46L39.62 10.50L38.07 10.50L38.39 8.46L38.04 8.46L38.04 6.92L38.64 6.92L39.63 0.70L41.54 0.70ZM48.06 0.70L48.06 0.70L48.06 2.24L46.68 2.24L46.68 8.67L46.68 10.50L45.14 10.50L45.14 8.67L45.14 2.24L43.65 2.24L43.65 0.70L45.14 0.70L46.68 0.70L48.06 0.70ZM51.87 0.70L51.87 0.70L53.41 0.70L53.41 10.50L51.87 10.50L51.87 5.60L50.51 5.60L50.51 10.50L48.97 10.50L48.97 4.06L50.50 4.06L48.97 1.02L48.97 0.70L50.51 0.70L50.51 4.06L51.87 4.06L51.87 0.70ZM55.86 0.70L55.86 0.70L58.32 0.70L58.32 1.68L58.32 2.24L55.86 2.24L55.86 4.07L57.82 4.07L57.82 4.35L57.82 5.33L57.82 5.61L55.86 5.61L55.86 8.96L58.32 8.96L58.32 9.52L58.32 10.50L55.86 10.50L54.32 10.50L54.32 9.48L54.32 4.07L55.86 4.07L54.32 1.04L54.32 0.70L55.86 0.70ZM62.71 5.60L64.02 10.50L62.54 10.50L60.77 4.06L62.15 4.06L62.15 2.25L60.77 2.25L60.77 4.06L59.23 1.02L59.23 0.70L62.57 0.70Q63 0.70 63.31 0.98Q63.62 1.26 63.67 1.68L63.67 1.68L63.69 4.48L63.69 4.49Q63.69 4.91 63.40 5.23Q63.11 5.54 62.71 5.60L62.71 5.60ZM59.23 10.50L59.23 4.06L60.77 4.06L60.77 10.50L59.23 10.50Z"></path></g><!----><g data-v-423bf9ae="" id="7e4eb57d-a11d-4cd1-9112-bd4ed599da1c" transform="matrix(2.8125,0,0,2.8125,0,0)" stroke="none" fill="black"><path d="M0 16l16 16 16-16L16 0 0 16zm16 13.172L2.828 16 16 2.828 29.172 16 16 29.172z"></path><path d="M14.751 9.991v4.76h-2.262v-4.76H9.991v12.018h2.498v-4.76h2.262v4.76h2.498v-4.76h2.262v4.76h2.498V9.991h-2.498v4.76h-2.262v-4.76z"></path></g><!----><g data-v-423bf9ae="" id="7c68cca2-f360-454b-89e7-77c28f738225" fill="black" transform="matrix(0.6236298520640122,0,0,0.6236298520640122,109.65700399425103,58.69037788175194)"><path d="M5.11 10.57C2.86 10.57 1.60 8.93 1.60 6.85C1.60 4.76 2.86 3.12 5.11 3.12C6.64 3.12 7.64 3.85 8.12 4.98L9.23 4.98C8.64 3.29 7.13 2.10 5.03 2.10C2.24 2.10 0.55 4.21 0.55 6.85C0.55 9.48 2.24 11.59 5.03 11.59C7.13 11.59 8.64 10.40 9.23 8.71L8.12 8.71C7.64 9.84 6.64 10.57 5.11 10.57ZM24.23 2.21L24.23 6.33L18.84 6.33L18.84 2.21L17.79 2.21L17.79 11.48L18.84 11.48L18.84 7.35L24.23 7.35L24.23 11.48L25.28 11.48L25.28 2.21ZM41.37 3.22L41.37 2.21L34.55 2.21L34.55 11.48L41.37 11.48L41.37 10.47L35.60 10.47L35.60 7.35L40.75 7.35L40.75 6.33L35.60 6.33L35.60 3.22ZM53.87 10.57C51.62 10.57 50.36 8.93 50.36 6.85C50.36 4.76 51.62 3.12 53.87 3.12C55.40 3.12 56.41 3.85 56.88 4.98L57.99 4.98C57.40 3.29 55.89 2.10 53.79 2.10C51.00 2.10 49.31 4.21 49.31 6.85C49.31 9.48 51.00 11.59 53.79 11.59C55.89 11.59 57.40 10.40 57.99 8.71L56.88 8.71C56.41 9.84 55.40 10.57 53.87 10.57ZM74.24 2.21L72.76 2.21L67.61 7.04L67.61 2.21L66.56 2.21L66.56 11.48L67.61 11.48L67.61 8.44L69.52 6.65L73.15 11.48L74.47 11.48L70.29 5.94ZM83.58 2.21L82.53 2.21L82.53 11.48L83.58 11.48ZM99.79 2.21L99.79 10.01L94.07 2.21L92.85 2.21L92.85 11.48L93.90 11.48L93.90 3.65L99.62 11.48L100.84 11.48L100.84 2.21ZM114.09 2.10C111.30 2.10 109.52 4.21 109.52 6.85C109.52 9.48 111.23 11.59 114.06 11.59C115.74 11.59 116.83 10.74 117.42 9.84L117.42 11.48L118.38 11.48L118.38 6.55L114.03 6.55L114.03 7.50L117.42 7.50C117.42 9.44 115.82 10.57 114.14 10.57C111.89 10.57 110.57 8.93 110.57 6.85C110.57 4.76 111.92 3.12 114.17 3.12C115.58 3.12 116.59 3.74 117.15 4.73L118.30 4.73C117.61 3.18 116.07 2.10 114.09 2.10ZM142.79 3.70L145.29 11.48L146.48 11.48L149.37 2.21L148.26 2.21L145.88 10.00L143.39 2.21L142.18 2.21L139.69 10.00L137.31 2.21L136.21 2.21L139.09 11.48L140.28 11.48ZM164.44 3.22L164.44 2.21L157.63 2.21L157.63 11.48L164.44 11.48L164.44 10.47L158.68 10.47L158.68 7.35L163.83 7.35L163.83 6.33L158.68 6.33L158.68 3.22ZM177.30 2.21L175.98 2.21L172.05 11.48L173.21 11.48L174.34 8.79L178.93 8.79L180.07 11.48L181.23 11.48ZM174.75 7.83L176.64 3.30L178.53 7.83ZM195.16 2.21L187.64 2.21L187.64 3.22L190.88 3.22L190.88 11.48L191.93 11.48L191.93 3.22L195.16 3.22ZM209.93 2.21L209.93 6.33L204.54 6.33L204.54 2.21L203.49 2.21L203.49 11.48L204.54 11.48L204.54 7.35L209.93 7.35L209.93 11.48L210.98 11.48L210.98 2.21ZM227.07 3.22L227.07 2.21L220.25 2.21L220.25 11.48L227.07 11.48L227.07 10.47L221.30 10.47L221.30 7.35L226.45 7.35L226.45 6.33L221.30 6.33L221.30 3.22ZM236.81 7.92L240.03 7.92L242.27 11.48L243.52 11.48L241.08 7.74C242.12 7.50 243.32 6.90 243.32 5.11C243.32 3.35 242.10 2.21 240.20 2.21L235.76 2.21L235.76 11.48L236.81 11.48ZM236.81 3.21L240.07 3.21C241.39 3.21 242.27 3.93 242.27 5.11C242.27 6.55 241.01 6.93 240.02 6.93L236.81 6.93ZM264.88 2.10C262.86 2.10 261.80 3.19 261.80 4.63C261.80 5.56 262.57 6.38 263.20 6.58C262.12 6.99 261.49 7.83 261.49 8.82C261.49 10.47 262.99 11.59 264.74 11.59C266.71 11.59 267.90 10.49 267.90 8.90L267.90 7.13L268.81 7.13L268.81 6.19L267.90 6.19L267.90 5.57L266.92 5.57L266.92 6.19L264.67 6.19C263.70 6.19 262.85 5.70 262.85 4.65C262.85 3.77 263.47 3.05 264.85 3.05C265.94 3.05 266.57 3.58 266.71 4.03L267.82 4.03C267.62 3.08 266.78 2.10 264.88 2.10ZM266.92 7.13L266.92 8.99C266.92 9.86 266.21 10.65 264.74 10.65C263.42 10.65 262.54 9.80 262.54 8.85C262.54 7.91 263.37 7.13 264.54 7.13ZM291.19 10.57C288.93 10.57 287.67 8.93 287.67 6.85C287.67 4.76 288.93 3.12 291.19 3.12C292.71 3.12 293.72 3.85 294.20 4.98L295.30 4.98C294.71 3.29 293.20 2.10 291.10 2.10C288.32 2.10 286.62 4.21 286.62 6.85C286.62 9.48 288.32 11.59 291.10 11.59C293.20 11.59 294.71 10.40 295.30 8.71L294.20 8.71C293.72 9.84 292.71 10.57 291.19 10.57ZM310.31 2.21L310.31 6.33L304.92 6.33L304.92 2.21L303.87 2.21L303.87 11.48L304.92 11.48L304.92 7.35L310.31 7.35L310.31 11.48L311.36 11.48L311.36 2.21ZM324.79 2.21L323.47 2.21L319.54 11.48L320.70 11.48L321.83 8.79L326.42 8.79L327.56 11.48L328.72 11.48ZM322.24 7.83L324.13 3.30L326.02 7.83ZM342.65 2.21L335.13 2.21L335.13 3.22L338.37 3.22L338.37 11.48L339.42 11.48L339.42 3.22L342.65 3.22ZM357.56 2.21L350.04 2.21L350.04 3.22L353.28 3.22L353.28 11.48L354.33 11.48L354.33 3.22L357.56 3.22ZM366.94 2.21L365.89 2.21L365.89 11.48L366.94 11.48ZM383.15 2.21L383.15 10.01L377.43 2.21L376.21 2.21L376.21 11.48L377.26 11.48L377.26 3.65L382.98 11.48L384.20 11.48L384.20 2.21ZM397.45 2.10C394.66 2.10 392.88 4.21 392.88 6.85C392.88 9.48 394.59 11.59 397.42 11.59C399.10 11.59 400.19 10.74 400.78 9.84L400.78 11.48L401.74 11.48L401.74 6.55L397.39 6.55L397.39 7.50L400.78 7.50C400.78 9.44 399.18 10.57 397.50 10.57C395.25 10.57 393.93 8.93 393.93 6.85C393.93 4.76 395.28 3.12 397.53 3.12C398.94 3.12 399.95 3.74 400.51 4.73L401.66 4.73C400.97 3.18 399.43 2.10 397.45 2.10ZM427.27 3.22L427.27 2.21L420.57 2.21L420.57 11.48L421.62 11.48L421.62 7.46L426.65 7.46L426.65 6.44L421.62 6.44L421.62 3.22ZM436.79 7.92L440.01 7.92L442.25 11.48L443.49 11.48L441.06 7.74C442.09 7.50 443.30 6.90 443.30 5.11C443.30 3.35 442.08 2.21 440.17 2.21L435.74 2.21L435.74 11.48L436.79 11.48ZM436.79 3.21L440.05 3.21C441.36 3.21 442.25 3.93 442.25 5.11C442.25 6.55 440.99 6.93 439.99 6.93L436.79 6.93ZM453.15 2.21L452.10 2.21L452.10 11.48L453.15 11.48ZM469.24 3.22L469.24 2.21L462.42 2.21L462.42 11.48L469.24 11.48L469.24 10.47L463.47 10.47L463.47 7.35L468.62 7.35L468.62 6.33L463.47 6.33L463.47 3.22ZM484.88 2.21L484.88 10.01L479.15 2.21L477.93 2.21L477.93 11.48L478.98 11.48L478.98 3.65L484.71 11.48L485.93 11.48L485.93 2.21ZM499.10 2.21L495.19 2.21L495.19 11.48L499.10 11.48C501.31 11.48 503.36 9.74 503.36 6.85C503.36 3.95 501.31 2.21 499.10 2.21ZM499.06 10.49L496.24 10.49L496.24 3.21L499.06 3.21C501.03 3.21 502.31 4.86 502.31 6.85C502.31 8.83 501.03 10.49 499.06 10.49Z"></path></g></svg>