<svg data-v-fde0c5aa="" xmlns="http://www.w3.org/2000/svg" viewBox="0 0 300 300" class="font"><!----><defs data-v-fde0c5aa=""><!----></defs><rect data-v-fde0c5aa="" fill="transparent" x="0" y="0" width="300px" height="300px" class="logo-background-square"></rect><defs data-v-fde0c5aa=""><linearGradient data-v-fde0c5aa="" gradientTransform="rotate(25)" id="4c2fd62b-765f-4c80-8928-516653006d02" x1="0%" y1="0%" x2="100%" y2="0%"><stop data-v-fde0c5aa="" offset="0%" stop-color="#920DE9" stop-opacity="1"></stop><stop data-v-fde0c5aa="" offset="100%" stop-color="#1536F1" stop-opacity="1"></stop></linearGradient></defs><g data-v-fde0c5aa="" id="982d0ffe-5d0c-4ed1-8c53-86e4d146e1c6" fill="url(#4c2fd62b-765f-4c80-8928-516653006d02)" transform="matrix(3.4364262970299104,0,0,3.4364262970299104,40,130.75601244987473)"><path d="M3.74 0.70L3.74 0.70L6.13 0.70L6.13 10.50L4.59 10.50L4.59 5.24L3.74 9.77L2.39 9.77L1.54 5.24L1.54 10.50L0 10.50L0 0.70L2.39 0.70L3.07 4.61L3.74 0.70ZM8.58 0.70L8.58 0.70L11.05 0.70L11.05 1.68L11.05 2.24L8.58 2.24L8.58 4.07L10.54 4.07L10.54 4.35L10.54 5.33L10.54 5.61L8.58 5.61L8.58 8.96L11.05 8.96L11.05 9.52L11.05 10.50L8.58 10.50L7.04 10.50L7.04 9.48L7.04 4.07L8.58 4.07L7.04 1.04L7.04 0.70L8.58 0.70ZM16.35 0.70L16.35 0.70L16.35 2.24L14.97 2.24L14.97 8.67L14.97 10.50L13.43 10.50L13.43 8.67L13.43 2.24L11.94 2.24L11.94 0.70L13.43 0.70L14.97 0.70L16.35 0.70ZM20.76 0.70L20.76 0.70L22.34 10.50L20.78 10.50L19.81 3.70L19.42 6.90L19.42 6.92L19.81 6.92L19.81 8.46L19.17 8.46L18.84 10.50L17.29 10.50L17.61 8.46L17.26 8.46L17.26 6.92L17.86 6.92L18.86 0.70L20.76 0.70ZM32.03 0.70L32.03 0.70L32.34 0.70L31.15 10.25L31.12 10.50L30.87 10.50L29.53 10.50L29.29 10.50L29.26 10.26L28.78 7.57L28.32 10.26L28.28 10.50L28.04 10.50L26.70 10.50L26.45 10.50L26.42 10.25L25.21 0.70L25.54 0.70L26.53 0.70L26.78 0.70L27.44 6.40L28.14 2.79L28.18 2.56L28.41 2.56L29.27 2.56L29.51 2.56L29.55 2.79L30.14 6.27L30.79 0.70L31.04 0.70L32.03 0.70ZM34.66 0.70L34.66 0.70L37.13 0.70L37.13 1.68L37.13 2.24L34.66 2.24L34.66 4.07L36.62 4.07L36.62 4.35L36.62 5.33L36.62 5.61L34.66 5.61L34.66 8.96L37.13 8.96L37.13 9.52L37.13 10.50L34.66 10.50L33.12 10.50L33.12 9.48L33.12 4.07L34.66 4.07L33.12 1.04L33.12 0.70L34.66 0.70ZM41.54 0.70L41.54 0.70L43.12 10.50L41.55 10.50L40.59 3.70L40.19 6.90L40.19 6.92L40.59 6.92L40.59 8.46L39.94 8.46L39.62 10.50L38.07 10.50L38.39 8.46L38.04 8.46L38.04 6.92L38.64 6.92L39.63 0.70L41.54 0.70ZM48.06 0.70L48.06 0.70L48.06 2.24L46.68 2.24L46.68 8.67L46.68 10.50L45.14 10.50L45.14 8.67L45.14 2.24L43.65 2.24L43.65 0.70L45.14 0.70L46.68 0.70L48.06 0.70ZM51.87 0.70L51.87 0.70L53.41 0.70L53.41 10.50L51.87 10.50L51.87 5.60L50.51 5.60L50.51 10.50L48.97 10.50L48.97 4.06L50.50 4.06L48.97 1.02L48.97 0.70L50.51 0.70L50.51 4.06L51.87 4.06L51.87 0.70ZM55.86 0.70L55.86 0.70L58.32 0.70L58.32 1.68L58.32 2.24L55.86 2.24L55.86 4.07L57.82 4.07L57.82 4.35L57.82 5.33L57.82 5.61L55.86 5.61L55.86 8.96L58.32 8.96L58.32 9.52L58.32 10.50L55.86 10.50L54.32 10.50L54.32 9.48L54.32 4.07L55.86 4.07L54.32 1.04L54.32 0.70L55.86 0.70ZM62.71 5.60L64.02 10.50L62.54 10.50L60.77 4.06L62.15 4.06L62.15 2.25L60.77 2.25L60.77 4.06L59.23 1.02L59.23 0.70L62.57 0.70Q63 0.70 63.31 0.98Q63.62 1.26 63.67 1.68L63.67 1.68L63.69 4.48L63.69 4.49Q63.69 4.91 63.40 5.23Q63.11 5.54 62.71 5.60L62.71 5.60ZM59.23 10.50L59.23 4.06L60.77 4.06L60.77 10.50L59.23 10.50Z"></path></g><!----><!----></svg>